<mxfile host="app.diagrams.net" modified="2024-05-20T20:16:22.187Z" agent="Mozilla/5.0 (Windows NT 10.0; Win64; x64) AppleWebKit/537.36 (KHTML, like Gecko) Chrome/124.0.0.0 Safari/537.36" etag="oPZxVHsuIGfHOHnJM8tf" version="24.3.1" type="device">
  <diagram name="Page-1" id="hyNojfvwmuaRFTdoJhfo">
    <mxGraphModel dx="1434" dy="738" grid="0" gridSize="10" guides="1" tooltips="1" connect="1" arrows="1" fold="1" page="1" pageScale="1" pageWidth="850" pageHeight="1100" background="#000000" math="0" shadow="0">
      <root>
        <mxCell id="0" />
        <mxCell id="1" parent="0" />
        <mxCell id="sW9vH5mAiDwMhIf9DRkg-1" value="" style="edgeStyle=orthogonalEdgeStyle;rounded=0;orthogonalLoop=1;jettySize=auto;html=1;" parent="1" target="sW9vH5mAiDwMhIf9DRkg-13" edge="1">
          <mxGeometry relative="1" as="geometry">
            <mxPoint x="414" y="363.0000000000002" as="sourcePoint" />
          </mxGeometry>
        </mxCell>
        <mxCell id="sW9vH5mAiDwMhIf9DRkg-44" value="" style="edgeStyle=orthogonalEdgeStyle;rounded=0;orthogonalLoop=1;jettySize=auto;html=1;" parent="1" source="sW9vH5mAiDwMhIf9DRkg-5" target="sW9vH5mAiDwMhIf9DRkg-8" edge="1">
          <mxGeometry relative="1" as="geometry" />
        </mxCell>
        <mxCell id="sW9vH5mAiDwMhIf9DRkg-5" value="&lt;font style=&quot;font-size: 16px;&quot; color=&quot;#ffffff&quot;&gt;Prediction&lt;/font&gt;" style="rounded=1;whiteSpace=wrap;html=1;fillColor=none;fontSize=16;strokeColor=#FFFFFF;" parent="1" vertex="1">
          <mxGeometry x="1039" y="442" width="120" height="60" as="geometry" />
        </mxCell>
        <mxCell id="sW9vH5mAiDwMhIf9DRkg-7" value="" style="edgeStyle=orthogonalEdgeStyle;rounded=0;orthogonalLoop=1;jettySize=auto;html=1;" parent="1" source="sW9vH5mAiDwMhIf9DRkg-8" edge="1">
          <mxGeometry relative="1" as="geometry">
            <mxPoint x="1162.0000000000005" y="480" as="targetPoint" />
          </mxGeometry>
        </mxCell>
        <mxCell id="sW9vH5mAiDwMhIf9DRkg-8" value="&lt;font style=&quot;font-size: 16px;&quot; color=&quot;#ffffff&quot;&gt;Classification&lt;/font&gt;" style="rounded=1;whiteSpace=wrap;html=1;fillColor=none;strokeColor=#CCE5FF;fontSize=16;" parent="1" vertex="1">
          <mxGeometry x="1206" y="442" width="120" height="60" as="geometry" />
        </mxCell>
        <mxCell id="sW9vH5mAiDwMhIf9DRkg-9" style="edgeStyle=orthogonalEdgeStyle;rounded=0;orthogonalLoop=1;jettySize=auto;html=1;strokeWidth=4;fillColor=none;strokeColor=#FFFFFF;" parent="1" source="sW9vH5mAiDwMhIf9DRkg-21" target="sW9vH5mAiDwMhIf9DRkg-14" edge="1">
          <mxGeometry relative="1" as="geometry">
            <mxPoint x="191" y="586" as="sourcePoint" />
            <mxPoint x="241" y="586" as="targetPoint" />
          </mxGeometry>
        </mxCell>
        <mxCell id="sW9vH5mAiDwMhIf9DRkg-12" value="Transcription of audio files" style="rounded=1;whiteSpace=wrap;html=1;fillColor=#000000;strokeColor=#FFFFFF;dashed=1;dashPattern=8 8;fontColor=#FFFFFF;fontSize=16;" parent="1" vertex="1">
          <mxGeometry x="7" y="437" width="99" height="70" as="geometry" />
        </mxCell>
        <mxCell id="sW9vH5mAiDwMhIf9DRkg-13" value="&lt;font style=&quot;font-size: 16px;&quot; color=&quot;#ffffff&quot;&gt;Audio Feature Extraction&lt;/font&gt;" style="rounded=1;whiteSpace=wrap;html=1;fillColor=none;fontSize=16;strokeColor=#FFFFFF;" parent="1" vertex="1">
          <mxGeometry x="241" y="333" width="120" height="60" as="geometry" />
        </mxCell>
        <mxCell id="sW9vH5mAiDwMhIf9DRkg-14" value="&lt;font style=&quot;font-size: 16px;&quot; color=&quot;#ffffff&quot;&gt;Text Feature Extraction&lt;/font&gt;" style="rounded=1;whiteSpace=wrap;html=1;fillColor=none;fontSize=16;strokeColor=#FFFFFF;" parent="1" vertex="1">
          <mxGeometry x="241" y="560" width="120" height="60" as="geometry" />
        </mxCell>
        <mxCell id="sW9vH5mAiDwMhIf9DRkg-15" style="edgeStyle=orthogonalEdgeStyle;rounded=0;orthogonalLoop=1;jettySize=auto;html=1;strokeWidth=4;exitX=1;exitY=0.5;exitDx=0;exitDy=0;fillColor=none;strokeColor=#FFFFFF;" parent="1" edge="1">
          <mxGeometry relative="1" as="geometry">
            <mxPoint x="361" y="590.5" as="sourcePoint" />
            <mxPoint x="415" y="590.5" as="targetPoint" />
            <Array as="points">
              <mxPoint x="401" y="591" />
              <mxPoint x="401" y="591" />
            </Array>
          </mxGeometry>
        </mxCell>
        <mxCell id="sW9vH5mAiDwMhIf9DRkg-17" style="edgeStyle=orthogonalEdgeStyle;rounded=0;orthogonalLoop=1;jettySize=auto;html=1;strokeWidth=4;exitX=1;exitY=0.5;exitDx=0;exitDy=0;fillColor=none;strokeColor=#FFFFFF;" parent="1" source="sW9vH5mAiDwMhIf9DRkg-13" edge="1">
          <mxGeometry relative="1" as="geometry">
            <mxPoint x="220" y="615" as="sourcePoint" />
            <mxPoint x="414" y="363.0000000000002" as="targetPoint" />
          </mxGeometry>
        </mxCell>
        <mxCell id="sW9vH5mAiDwMhIf9DRkg-18" style="edgeStyle=orthogonalEdgeStyle;rounded=0;orthogonalLoop=1;jettySize=auto;html=1;strokeWidth=4;fillColor=none;strokeColor=#FFFFFF;" parent="1" source="sW9vH5mAiDwMhIf9DRkg-5" target="sW9vH5mAiDwMhIf9DRkg-8" edge="1">
          <mxGeometry relative="1" as="geometry">
            <mxPoint x="1162.0000000000005" y="480" as="sourcePoint" />
            <mxPoint x="1206" y="480" as="targetPoint" />
          </mxGeometry>
        </mxCell>
        <mxCell id="sW9vH5mAiDwMhIf9DRkg-19" value="Audio Data" style="shape=cylinder3;whiteSpace=wrap;html=1;boundedLbl=1;backgroundOutline=1;size=15;fillColor=none;strokeColor=#FFFFFF;fontColor=#FFFFFF;fontSize=15;verticalAlign=top;" parent="1" vertex="1">
          <mxGeometry x="70" y="313" width="108" height="80" as="geometry" />
        </mxCell>
        <mxCell id="sW9vH5mAiDwMhIf9DRkg-20" style="edgeStyle=orthogonalEdgeStyle;rounded=0;orthogonalLoop=1;jettySize=auto;html=1;strokeWidth=4;fillColor=none;strokeColor=#FFFFFF;entryX=0;entryY=0.5;entryDx=0;entryDy=0;" parent="1" target="sW9vH5mAiDwMhIf9DRkg-13" edge="1">
          <mxGeometry relative="1" as="geometry">
            <mxPoint x="179" y="363" as="sourcePoint" />
            <mxPoint x="424" y="373" as="targetPoint" />
          </mxGeometry>
        </mxCell>
        <mxCell id="sW9vH5mAiDwMhIf9DRkg-21" value="Text Data" style="shape=cylinder3;whiteSpace=wrap;html=1;boundedLbl=1;backgroundOutline=1;size=15;fillColor=none;strokeColor=#FFFFFF;fontColor=#FFFFFF;fontSize=15;verticalAlign=top;" parent="1" vertex="1">
          <mxGeometry x="70" y="550" width="108" height="80" as="geometry" />
        </mxCell>
        <mxCell id="sW9vH5mAiDwMhIf9DRkg-22" style="edgeStyle=orthogonalEdgeStyle;rounded=0;orthogonalLoop=1;jettySize=auto;html=1;strokeWidth=4;fillColor=none;strokeColor=#FFFFFF;exitX=0.5;exitY=1;exitDx=0;exitDy=0;exitPerimeter=0;" parent="1" source="sW9vH5mAiDwMhIf9DRkg-19" target="sW9vH5mAiDwMhIf9DRkg-21" edge="1">
          <mxGeometry relative="1" as="geometry">
            <mxPoint x="189" y="373" as="sourcePoint" />
            <mxPoint x="251" y="373" as="targetPoint" />
          </mxGeometry>
        </mxCell>
        <mxCell id="sW9vH5mAiDwMhIf9DRkg-23" style="edgeStyle=orthogonalEdgeStyle;rounded=0;orthogonalLoop=1;jettySize=auto;html=1;strokeWidth=4;fillColor=none;strokeColor=#FFFFFF;entryX=0;entryY=0.5;entryDx=0;entryDy=0;" parent="1" edge="1">
          <mxGeometry relative="1" as="geometry">
            <mxPoint x="983" y="471.37000000000023" as="sourcePoint" />
            <mxPoint x="1035" y="471.37000000000023" as="targetPoint" />
          </mxGeometry>
        </mxCell>
        <mxCell id="sW9vH5mAiDwMhIf9DRkg-24" value="&lt;font style=&quot;font-size: 16px;&quot; color=&quot;#ffffff&quot;&gt;Performance Evaluation&lt;/font&gt;" style="swimlane;fontStyle=0;childLayout=stackLayout;horizontal=1;startSize=30;horizontalStack=0;resizeParent=1;resizeParentMax=0;resizeLast=0;collapsible=1;marginBottom=0;whiteSpace=wrap;html=1;rounded=1;fillColor=none;strokeColor=#FFFFFF;" parent="1" vertex="1">
          <mxGeometry x="1379" y="397" width="207" height="150" as="geometry">
            <mxRectangle x="959" y="211" width="54" height="30" as="alternateBounds" />
          </mxGeometry>
        </mxCell>
        <mxCell id="sW9vH5mAiDwMhIf9DRkg-25" value="&lt;font style=&quot;font-size: 16px;&quot; color=&quot;#ffffff&quot;&gt;Accuracy&lt;/font&gt;" style="text;strokeColor=none;fillColor=none;align=center;verticalAlign=middle;spacingLeft=4;spacingRight=4;overflow=hidden;points=[[0,0.5],[1,0.5]];portConstraint=eastwest;rotatable=0;whiteSpace=wrap;html=1;fontSize=16;" parent="sW9vH5mAiDwMhIf9DRkg-24" vertex="1">
          <mxGeometry y="30" width="207" height="30" as="geometry" />
        </mxCell>
        <mxCell id="sW9vH5mAiDwMhIf9DRkg-26" value="Precision" style="text;strokeColor=none;fillColor=none;align=center;verticalAlign=middle;spacingLeft=4;spacingRight=4;overflow=hidden;points=[[0,0.5],[1,0.5]];portConstraint=eastwest;rotatable=0;whiteSpace=wrap;html=1;fontColor=#FFFFFF;fontSize=16;" parent="sW9vH5mAiDwMhIf9DRkg-24" vertex="1">
          <mxGeometry y="60" width="207" height="30" as="geometry" />
        </mxCell>
        <mxCell id="sW9vH5mAiDwMhIf9DRkg-27" value="Recall" style="text;strokeColor=none;fillColor=none;align=center;verticalAlign=middle;spacingLeft=4;spacingRight=4;overflow=hidden;points=[[0,0.5],[1,0.5]];portConstraint=eastwest;rotatable=0;whiteSpace=wrap;html=1;fontColor=#FFFFFF;fontSize=16;" parent="sW9vH5mAiDwMhIf9DRkg-24" vertex="1">
          <mxGeometry y="90" width="207" height="30" as="geometry" />
        </mxCell>
        <mxCell id="sW9vH5mAiDwMhIf9DRkg-28" value="F-Score" style="text;strokeColor=none;fillColor=none;align=center;verticalAlign=middle;spacingLeft=4;spacingRight=4;overflow=hidden;points=[[0,0.5],[1,0.5]];portConstraint=eastwest;rotatable=0;whiteSpace=wrap;html=1;fontColor=#FFFFFF;fontSize=16;" parent="sW9vH5mAiDwMhIf9DRkg-24" vertex="1">
          <mxGeometry y="120" width="207" height="30" as="geometry" />
        </mxCell>
        <mxCell id="sW9vH5mAiDwMhIf9DRkg-29" style="edgeStyle=orthogonalEdgeStyle;rounded=0;orthogonalLoop=1;jettySize=auto;html=1;strokeWidth=4;fillColor=none;strokeColor=#FFFFFF;exitX=1;exitY=0.5;exitDx=0;exitDy=0;" parent="1" source="sW9vH5mAiDwMhIf9DRkg-8" target="sW9vH5mAiDwMhIf9DRkg-26" edge="1">
          <mxGeometry relative="1" as="geometry">
            <mxPoint x="1172" y="490" as="sourcePoint" />
            <mxPoint x="1216" y="490" as="targetPoint" />
          </mxGeometry>
        </mxCell>
        <mxCell id="sW9vH5mAiDwMhIf9DRkg-30" value="&lt;font style=&quot;font-size: 16px;&quot; color=&quot;#ffffff&quot;&gt;Hybrid CNN-LSTM Model&lt;/font&gt;" style="rounded=1;whiteSpace=wrap;html=1;fillColor=none;fontSize=16;strokeColor=#FFFFFF;" parent="1" vertex="1">
          <mxGeometry x="863" y="442" width="120" height="60" as="geometry" />
        </mxCell>
        <mxCell id="sW9vH5mAiDwMhIf9DRkg-31" value="&lt;font style=&quot;font-size: 16px;&quot; color=&quot;#ffffff&quot;&gt;Audio Features&lt;/font&gt;" style="rounded=1;whiteSpace=wrap;html=1;fillColor=none;fontSize=16;strokeColor=#FFFFFF;" parent="1" vertex="1">
          <mxGeometry x="415" y="333" width="120" height="60" as="geometry" />
        </mxCell>
        <mxCell id="sW9vH5mAiDwMhIf9DRkg-32" value="&lt;font style=&quot;font-size: 16px;&quot; color=&quot;#ffffff&quot;&gt;BERT Embeddings&lt;/font&gt;" style="rounded=1;whiteSpace=wrap;html=1;fillColor=none;fontSize=16;strokeColor=#FFFFFF;" parent="1" vertex="1">
          <mxGeometry x="415" y="560" width="120" height="60" as="geometry" />
        </mxCell>
        <mxCell id="sW9vH5mAiDwMhIf9DRkg-33" value="&lt;font style=&quot;font-size: 16px;&quot; color=&quot;#ffffff&quot;&gt;Feature Level Fusion&lt;/font&gt;" style="swimlane;fontStyle=0;childLayout=stackLayout;horizontal=1;startSize=30;horizontalStack=0;resizeParent=1;resizeParentMax=0;resizeLast=0;collapsible=1;marginBottom=0;whiteSpace=wrap;html=1;rounded=1;fillColor=none;strokeColor=#FFFFFF;" parent="1" vertex="1">
          <mxGeometry x="604" y="442" width="207" height="60" as="geometry">
            <mxRectangle x="959" y="211" width="54" height="30" as="alternateBounds" />
          </mxGeometry>
        </mxCell>
        <mxCell id="sW9vH5mAiDwMhIf9DRkg-34" value="&lt;font color=&quot;#ffffff&quot; style=&quot;font-size: 15px;&quot;&gt;Concatenation&lt;/font&gt;" style="text;strokeColor=none;fillColor=none;align=center;verticalAlign=middle;spacingLeft=4;spacingRight=4;overflow=hidden;points=[[0,0.5],[1,0.5]];portConstraint=eastwest;rotatable=0;whiteSpace=wrap;html=1;fontSize=15;" parent="sW9vH5mAiDwMhIf9DRkg-33" vertex="1">
          <mxGeometry y="30" width="207" height="30" as="geometry" />
        </mxCell>
        <mxCell id="sW9vH5mAiDwMhIf9DRkg-41" style="edgeStyle=orthogonalEdgeStyle;rounded=0;orthogonalLoop=1;jettySize=auto;html=1;strokeWidth=4;exitX=1;exitY=0.5;exitDx=0;exitDy=0;fillColor=none;strokeColor=#FFFFFF;entryX=0;entryY=0.25;entryDx=0;entryDy=0;" parent="1" source="sW9vH5mAiDwMhIf9DRkg-31" target="sW9vH5mAiDwMhIf9DRkg-33" edge="1">
          <mxGeometry relative="1" as="geometry">
            <mxPoint x="371" y="373" as="sourcePoint" />
            <mxPoint x="424" y="373.0000000000002" as="targetPoint" />
          </mxGeometry>
        </mxCell>
        <mxCell id="sW9vH5mAiDwMhIf9DRkg-42" style="edgeStyle=orthogonalEdgeStyle;rounded=0;orthogonalLoop=1;jettySize=auto;html=1;strokeWidth=4;exitX=1;exitY=0.5;exitDx=0;exitDy=0;fillColor=none;strokeColor=#FFFFFF;entryX=0;entryY=0.5;entryDx=0;entryDy=0;" parent="1" source="sW9vH5mAiDwMhIf9DRkg-32" target="sW9vH5mAiDwMhIf9DRkg-34" edge="1">
          <mxGeometry relative="1" as="geometry">
            <mxPoint x="381" y="383" as="sourcePoint" />
            <mxPoint x="434" y="383.0000000000002" as="targetPoint" />
          </mxGeometry>
        </mxCell>
        <mxCell id="sW9vH5mAiDwMhIf9DRkg-43" style="edgeStyle=orthogonalEdgeStyle;rounded=0;orthogonalLoop=1;jettySize=auto;html=1;strokeWidth=4;exitX=1;exitY=0.5;exitDx=0;exitDy=0;fillColor=none;strokeColor=#FFFFFF;entryX=0;entryY=0.5;entryDx=0;entryDy=0;" parent="1" source="sW9vH5mAiDwMhIf9DRkg-33" target="sW9vH5mAiDwMhIf9DRkg-30" edge="1">
          <mxGeometry relative="1" as="geometry">
            <mxPoint x="391" y="393" as="sourcePoint" />
            <mxPoint x="444" y="393.0000000000002" as="targetPoint" />
          </mxGeometry>
        </mxCell>
      </root>
    </mxGraphModel>
  </diagram>
</mxfile>
